{"accessors" : [{"bufferView" : 0, "byteOffset" : 0, "componentType" : 5123, "count" : 396, "type" : "SCALAR", "max" : [385], "min" : [0]}, {"bufferView" : 1, "byteOffset" : 0, "componentType" : 5126, "count" : 386, "type" : "VEC3", "max" : [2.137972354888916, 6.047922611236572, 1.6689300537109375E-06], "min" : [-5.086850166320801, -10.15854263305664, -8.99850082397461], "name" : "POSITION"}, {"bufferView" : 1, "byteOffset" : 12, "componentType" : 5126, "count" : 386, "type" : "VEC3", "max" : [1.0000044107437134, 1.0000044107437134, 1.0000044107437134], "min" : [-1.0000044107437134, -1.0000044107437134, -1.0000044107437134], "name" : "NORMAL"}], "asset" : {"generator" : "Aspose.3D 22.7", "version" : "2.0"}, "buffers" : [{"uri" : "data:application/octet-stream;base64,", "byteLength" : 10304}], "bufferViews" : [{"buffer" : 0, "byteOffset" : 0, "byteLength" : 792, "target" : 34963}, {"buffer" : 0, "byteOffset" : 796, "byteLength" : 9504, "byteStride" : 24, "target" : 34962}], "materials" : [{"name" : "mat0", "pbrMetallicRoughness" : {"baseColorFactor" : [0.8627451062202454, 0.8627451062202454, 0.8627451062202454, 1], "metallicFactor" : 0, "roughnessFactor" : 0.4000000059604645}, "emissiveFactor" : [0, 0, 0], "alphaMode" : "OPAQUE", "doubleSided" : true}], "meshes" : [{"primitives" : [{"attributes" : {"POSITION" : 1, "NORMAL" : 2}, "indices" : 0, "material" : 0, "mode" : 4}]}], "nodes" : [{"mesh" : 0, "name" : "imagetostl_mesh"}], "scene" : 0, "scenes" : [{"nodes" : [0]}]}